<svg data-v-423bf9ae="" xmlns="http://www.w3.org/2000/svg" viewBox="0 0 307.23329089083103 60" class="font"><!----><!----><!----><g data-v-423bf9ae="" id="2e05e8ab-bd4b-439a-a1ff-8acf831a7267" fill="black" transform="matrix(5.203815821927428,0,0,5.203815821927428,1.092804624426833,-22.06417884758769)"><path d="M0.16 15.40L0.16 15.40L-0.21 14.80Q0.62 14.01 1.01 13.32Q1.40 12.62 1.40 11.83L1.40 11.83L1.41 5.48L0.17 5.19L0.24 4.67L3.96 4.67L3.90 5.19L2.73 5.46L2.72 10.54Q2.71 11.40 2.63 12.01Q2.55 12.62 2.39 13.08Q2.22 13.55 1.90 13.95Q1.57 14.34 1.18 14.66Q0.79 14.98 0.16 15.40ZM5.69 9.78L5.69 9.78Q5.69 10.33 5.80 10.83Q5.90 11.33 6.10 11.75Q6.31 12.18 6.68 12.43Q7.04 12.69 7.52 12.69L7.52 12.69Q7.98 12.69 8.31 12.39Q8.64 12.09 8.79 11.66Q8.93 11.22 8.93 10.72L8.93 10.72Q8.93 10.18 8.84 9.67Q8.74 9.17 8.54 8.72Q8.34 8.26 7.98 7.99Q7.63 7.72 7.16 7.72L7.16 7.72Q6.67 7.72 6.33 8.02Q5.99 8.31 5.84 8.76Q5.69 9.21 5.69 9.78ZM10.15 10.16L10.15 10.16Q10.15 11.09 9.77 11.83Q9.39 12.56 8.73 12.95Q8.08 13.35 7.29 13.35L7.29 13.35Q5.97 13.35 5.23 12.49Q4.48 11.62 4.48 10.26L4.48 10.26Q4.48 9.51 4.73 8.88Q4.98 8.25 5.39 7.85Q5.81 7.44 6.34 7.22Q6.88 7 7.45 7L7.45 7Q8.70 7 9.43 7.86Q10.15 8.73 10.15 10.16ZM13.83 9.15L13.83 9.15L13.77 8.86Q13.53 7.59 12.76 7.59L12.76 7.59Q12.41 7.59 12.20 7.83Q11.99 8.07 11.99 8.41L11.99 8.41Q11.99 8.67 12.15 8.90Q12.32 9.13 12.58 9.30Q12.85 9.48 13.17 9.66Q13.49 9.83 13.81 10.03Q14.13 10.23 14.39 10.45Q14.66 10.67 14.82 10.99Q14.99 11.30 14.99 11.67L14.99 11.67Q14.99 12.41 14.35 12.91Q13.71 13.41 12.89 13.41L12.89 13.41Q12.00 13.41 11.45 13.05Q10.90 12.69 10.90 12.21L10.90 12.21Q10.90 11.85 11.15 11.60Q11.40 11.35 11.81 11.31L11.81 11.31Q12.02 12.02 12.36 12.38Q12.69 12.74 13.09 12.74Q13.49 12.74 13.74 12.56Q13.99 12.39 13.99 12.04L13.99 12.04Q13.99 11.83 13.83 11.63Q13.67 11.43 13.41 11.27Q13.15 11.10 12.84 10.94Q12.53 10.77 12.22 10.57Q11.90 10.37 11.65 10.15Q11.39 9.93 11.22 9.60Q11.06 9.28 11.06 8.91L11.06 8.91Q11.06 8.67 11.14 8.41Q11.22 8.15 11.39 7.90Q11.55 7.64 11.79 7.45Q12.02 7.25 12.37 7.13Q12.71 7.01 13.10 7.01L13.10 7.01Q13.82 7.01 14.30 7.31Q14.78 7.61 14.78 8.16L14.78 8.16Q14.78 8.59 14.53 8.85Q14.27 9.12 13.83 9.15ZM20.36 5.17L20.21 7.11L19.54 7.03L19.36 5.72Q19.25 5.50 18.92 5.29Q18.59 5.08 18.20 5.08L18.20 5.08Q17.65 5.08 17.30 5.40Q16.95 5.73 16.95 6.36L16.95 6.36Q16.95 6.68 17.09 6.95Q17.23 7.21 17.46 7.41Q17.69 7.62 17.99 7.80Q18.29 7.98 18.62 8.16Q18.95 8.33 19.28 8.51Q19.61 8.69 19.91 8.91Q20.21 9.13 20.44 9.39Q20.67 9.64 20.81 9.99Q20.95 10.34 20.95 10.75L20.95 10.75Q20.95 11.33 20.70 11.82Q20.44 12.31 20.02 12.64Q19.60 12.97 19.05 13.16Q18.50 13.34 17.92 13.34L17.92 13.34Q17.21 13.34 16.58 13.05Q15.96 12.76 15.61 12.33L15.61 12.33L15.70 10.51L16.40 10.61L16.66 11.89Q16.86 12.21 17.24 12.43Q17.62 12.65 18.07 12.65L18.07 12.65Q18.36 12.65 18.63 12.56Q18.91 12.48 19.15 12.31Q19.40 12.15 19.55 11.86Q19.69 11.57 19.69 11.21Q19.69 10.85 19.48 10.55Q19.26 10.25 18.92 10.02Q18.57 9.80 18.16 9.58Q17.74 9.36 17.32 9.11Q16.91 8.86 16.56 8.57Q16.21 8.28 15.99 7.85Q15.78 7.42 15.78 6.91L15.78 6.91Q15.78 6.17 16.17 5.61Q16.56 5.04 17.15 4.77Q17.75 4.49 18.43 4.49L18.43 4.49Q19.54 4.49 20.36 5.17L20.36 5.17ZM26.15 10.09L26.15 10.09L22.84 10.12Q22.86 10.55 22.99 10.95Q23.11 11.35 23.33 11.70Q23.56 12.05 23.93 12.26Q24.29 12.48 24.75 12.48L24.75 12.48L24.79 12.48Q25.08 12.48 25.25 12.46Q25.41 12.45 25.69 12.36Q25.97 12.27 26.30 12.10L26.30 12.10L26.45 12.46Q26.04 12.89 25.45 13.14Q24.86 13.38 24.20 13.38L24.20 13.38Q23.71 13.38 23.25 13.17Q22.80 12.97 22.43 12.59Q22.06 12.22 21.84 11.61Q21.62 11.00 21.62 10.25L21.62 10.25Q21.62 9.50 21.88 8.88Q22.13 8.26 22.53 7.87Q22.94 7.47 23.43 7.25Q23.93 7.03 24.43 7.03L24.43 7.03Q25.22 7.03 25.74 7.59Q26.26 8.16 26.26 9.19L26.26 9.19Q26.26 9.59 26.15 10.09ZM22.85 9.59L22.85 9.59L25.00 9.45Q25.05 9.30 25.05 8.98L25.05 8.98Q25.05 7.70 24.10 7.70L24.10 7.70Q23.64 7.70 23.27 8.18Q22.90 8.66 22.85 9.59ZM30.55 12.56L30.55 12.56Q30.86 12.56 31.14 12.49Q31.42 12.41 31.57 12.34Q31.72 12.27 31.93 12.13L31.93 12.13L32.10 12.53Q31.82 12.87 31.22 13.13Q30.63 13.38 29.99 13.38L29.99 13.38Q29.19 13.38 28.56 12.95Q27.94 12.53 27.61 11.84Q27.29 11.15 27.29 10.33L27.29 10.33Q27.29 9.59 27.53 8.96Q27.77 8.33 28.18 7.91Q28.59 7.49 29.11 7.26Q29.63 7.02 30.19 7.02L30.19 7.02Q30.99 7.02 31.41 7.32Q31.83 7.63 31.83 8.07L31.83 8.07Q31.83 8.37 31.61 8.56Q31.39 8.75 30.97 8.78L30.97 8.78Q30.88 8.57 30.80 8.41Q30.71 8.24 30.57 8.06Q30.43 7.87 30.26 7.77Q30.08 7.66 29.86 7.66L29.86 7.66Q29.24 7.66 28.88 8.22Q28.52 8.78 28.52 9.71L28.52 9.71Q28.52 10.06 28.59 10.44Q28.66 10.82 28.82 11.20Q28.98 11.59 29.22 11.88Q29.45 12.18 29.79 12.37Q30.14 12.56 30.55 12.56ZM36.85 12.33L36.85 12.28L36.77 12.28Q36.06 13.33 34.81 13.33L34.81 13.33Q33.28 13.33 33.28 11.35L33.28 11.35L33.28 8.20L32.35 7.82L32.44 7.28L34.28 7.14L34.44 7.30L34.44 11.01Q34.44 12.39 35.50 12.39L35.50 12.39Q36.26 12.39 36.77 11.86L36.77 11.86L36.77 8.23L35.68 7.94L35.75 7.33L37.75 7.14L37.91 7.30L37.91 11.70Q37.91 11.95 37.95 12.11Q37.99 12.27 38.11 12.36Q38.23 12.45 38.33 12.49Q38.43 12.52 38.64 12.56L38.64 12.56L38.95 12.63L38.90 13.21Q38.38 13.33 37.86 13.33L37.86 13.33Q37.37 13.33 37.11 13.05Q36.85 12.78 36.85 12.33L36.85 12.33ZM43.58 8.57L43.58 8.57Q43.18 8.23 42.83 8.23L42.83 8.23Q42.51 8.23 42.17 8.62Q41.84 9.02 41.73 9.72L41.73 9.72L41.73 12.35L43.31 12.58L43.24 13.17L39.47 13.17L39.55 12.67L40.59 12.39L40.59 8.20L39.48 7.87L39.57 7.35L41.53 7.09L41.67 7.25L41.56 8.83L41.69 8.83Q41.95 7.94 42.39 7.46Q42.83 6.98 43.29 6.98L43.29 6.98Q43.65 6.98 43.88 7.21Q44.11 7.44 44.11 7.75L44.11 7.75Q44.11 8.20 43.58 8.57ZM44.47 13.17L44.55 12.63L45.59 12.38L45.59 8.18L44.55 7.80L44.64 7.28L46.56 7.12L46.73 7.29L46.73 12.38L47.82 12.62L47.75 13.17L44.47 13.17ZM46.09 4.24L46.09 4.24Q46.44 4.24 46.69 4.47Q46.94 4.70 46.94 5.02L46.94 5.02Q46.94 5.36 46.68 5.61Q46.43 5.86 46.09 5.86Q45.76 5.86 45.52 5.61Q45.29 5.36 45.29 5.01L45.29 5.01Q45.29 4.68 45.53 4.46Q45.77 4.24 46.09 4.24ZM49.92 5.74L49.92 5.74L50.28 5.74L50.28 7.23L52.21 7.23L52.15 7.83L50.27 7.83L50.24 10.94L50.24 10.99Q50.24 11.74 50.48 12.04Q50.72 12.33 51.25 12.33L51.25 12.33Q51.47 12.33 51.72 12.24Q51.97 12.14 52.10 12.05L52.10 12.05L52.23 11.96L52.38 12.33Q52.06 12.79 51.58 13.06Q51.10 13.33 50.53 13.33L50.53 13.33Q50.20 13.33 49.94 13.24Q49.69 13.15 49.49 12.94Q49.29 12.73 49.18 12.34Q49.08 11.96 49.08 11.40L49.08 11.40L49.08 11.19L49.10 7.82L48.22 7.82L48.22 7.45Q49.08 6.77 49.92 5.74ZM55.20 13.17L53.25 7.99L52.40 7.73L52.48 7.21L55.34 7.21L55.29 7.71L54.42 7.96L55.82 11.66L57.29 8.00L56.40 7.72L56.49 7.21L58.83 7.21L58.78 7.71L58.09 7.99L55.83 13.54Q55.30 14.83 54.81 15.30Q54.33 15.77 53.53 15.77L53.53 15.77Q53.08 15.77 52.78 15.52Q52.48 15.27 52.48 14.96L52.48 14.96Q52.48 14.46 52.86 14.14L52.86 14.14Q53.40 14.51 53.89 14.51L53.89 14.51Q54.04 14.51 54.17 14.48Q54.29 14.44 54.46 14.36Q54.62 14.27 54.78 14.05Q54.93 13.84 55.06 13.51L55.06 13.51L55.20 13.17Z"></path></g><!----><!----></svg>